<?xml version="1.0" standalone="no"?>
<!DOCTYPE svg PUBLIC "-//W3C//DTD SVG 20010904//EN"
 "http://www.w3.org/TR/2001/REC-SVG-20010904/DTD/svg10.dtd">
<svg version="1.0" xmlns="http://www.w3.org/2000/svg"
 width="500.000000pt" height="500.000000pt" viewBox="0 0 500.000000 500.000000"
 preserveAspectRatio="xMidYMid meet">

<g transform="translate(0.000000,500.000000) scale(0.100000,-0.100000)"
fill="#000000" stroke="none">
<path d="M0 2500 l0 -2500 2500 0 2500 0 0 2500 0 2500 -2500 0 -2500 0 0
-2500z m2265 146 c11 -8 18 -26 18 -46 0 -39 -23 -60 -67 -60 -57 0 -87 60
-49 102 19 21 71 24 98 4z m295 -46 c0 -41 -3 -50 -18 -50 -23 0 -42 -19 -42
-42 0 -13 8 -18 30 -18 29 0 30 -2 30 -45 0 -43 -1 -45 -30 -45 l-30 0 0 -150
0 -150 -60 0 -59 0 -3 148 c-3 144 -3 147 -25 150 -20 3 -23 9 -23 48 0 40 2
44 25 44 22 0 25 5 25 33 0 71 62 126 143 127 l37 0 0 -50z m-1766 4 c3 -9 6
-126 6 -260 l0 -244 -60 0 -60 0 0 260 0 260 54 0 c40 0 55 -4 60 -16z m-309
-32 c22 -11 50 -31 61 -44 20 -21 54 -80 54 -93 0 -3 -28 -5 -61 -5 -54 0 -66
4 -96 30 -27 24 -43 30 -79 30 -39 0 -51 -5 -79 -33 -56 -56 -59 -147 -8 -208
49 -58 119 -61 173 -8 25 26 36 29 90 29 59 0 61 -1 54 -22 -18 -60 -84 -122
-147 -139 -23 -6 -71 -9 -107 -7 -57 3 -73 9 -115 39 -71 50 -100 112 -100
209 0 85 21 137 77 190 65 61 198 76 283 32z m594 -82 c19 -5 45 -19 58 -32
l23 -21 0 26 c0 26 2 27 60 27 l60 0 0 -195 0 -195 -60 0 c-57 0 -60 1 -60 25
l0 24 -36 -24 c-49 -34 -127 -35 -175 -2 -50 33 -79 97 -79 174 0 74 16 117
57 156 45 42 94 54 152 37z m529 -12 c28 -14 72 -72 72 -94 0 -23 -96 -18
-120 6 -24 24 -63 26 -80 5 -19 -23 2 -41 79 -64 38 -12 78 -29 90 -38 48 -40
42 -127 -12 -167 -33 -24 -138 -34 -189 -17 -42 14 -84 56 -93 94 -7 27 -7 27
45 27 43 0 57 -4 76 -25 35 -38 100 -30 92 11 -2 14 -26 27 -83 47 -117 40
-150 90 -110 167 32 63 151 87 233 48z m407 -8 c27 -17 65 -71 65 -94 0 -3
-24 -6 -53 -6 -42 0 -58 5 -72 20 -13 14 -29 20 -49 18 -25 -2 -31 -7 -31 -28
0 -21 8 -27 75 -47 89 -27 130 -64 130 -117 0 -67 -64 -116 -154 -116 -95 0
-162 40 -179 108 -5 21 -2 22 50 22 47 0 58 -4 75 -25 22 -28 68 -34 88 -10
21 26 4 42 -72 65 -94 28 -128 59 -128 116 0 81 72 129 179 118 24 -2 58 -13
76 -24z m263 -177 l2 -193 -60 0 -60 0 0 195 0 196 58 -3 57 -3 3 -192z m471
92 c23 -58 41 -110 41 -115 0 -6 4 -10 8 -10 5 0 28 52 52 115 l42 115 63 0
64 0 -41 -97 c-22 -54 -77 -183 -122 -288 l-82 -190 -62 -3 c-34 -2 -62 0 -62
3 0 3 19 47 42 97 23 51 41 98 41 103 0 6 -33 87 -72 180 -40 94 -75 176 -78
183 -4 9 12 12 60 12 l66 0 40 -105z m1426 73 c112 -28 234 -129 282 -234 75
-164 42 -372 -80 -499 l-46 -48 89 -107 c50 -60 90 -111 90 -114 0 -3 -55 -6
-123 -6 l-123 0 -55 74 -54 74 -65 -5 c-233 -19 -437 144 -472 377 -47 316
239 567 557 488z m-675 -428 l0 -430 -105 0 -105 0 0 430 0 430 105 0 105 0 0
-430z"/>
<path d="M1054 2392 c-65 -10 -90 -117 -39 -167 58 -59 153 -6 142 78 -8 61
-51 98 -103 89z"/>
<path d="M3960 2264 c-46 -20 -77 -50 -103 -99 -30 -54 -31 -202 -3 -255 51
-97 137 -140 242 -121 59 11 69 16 121 65 87 80 82 288 -9 373 -55 51 -174 69
-248 37z"/>
</g>
</svg>
